<svg width="493" height="475" viewBox="0 0 493 475" fill="none" xmlns="http://www.w3.org/2000/svg">
<path d="M152.53 84.4156L0.738281 257.994L251.659 438.804L353.887 473.52L449.918 428.679L491.738 298.495L435.978 174.098L392.609 17.8773L338.398 0.519531L262.502 17.8773L152.53 84.4156Z" fill="#4DAF4A" fill-opacity="0.35" stroke="#4DAF4A"/>
<path d="M202.094 140.833L185.057 191.46L248.561 231.962L316.713 220.39L332.202 163.977L291.93 136.494L248.561 124.922L202.094 140.833Z" fill="#D9D9D9" stroke="#D9D9D9"/>
<g clip-path="url(#clip0_1245_387)">
<path d="M263.059 165.513C263.566 165.978 264.046 166.416 264.407 166.967L264.607 167.273L264.938 167.115C265.858 166.675 266.486 165.971 267.093 165.29C267.551 164.777 267.983 164.292 268.526 163.927L268.862 163.7L268.645 163.356C267.71 161.868 266.46 160.602 264.984 159.647L264.673 159.445L264.435 159.73C263.5 160.851 262.473 161.891 261.364 162.839L261.122 163.047L261.257 163.336C261.693 164.264 262.387 164.899 263.059 165.513ZM268.449 171.856C271.6 171.856 274.18 170.568 275.714 168.23L275.897 167.952L275.668 167.71C275.401 167.43 275.147 167.138 274.892 166.845C274.132 165.972 273.344 165.071 272.236 164.472L271.85 164.263L271.66 164.661C270.364 167.36 267.855 167.926 265.979 167.926C262.691 167.926 258.739 166.092 256.982 163.748L255.599 161.903L256.245 164.117C257.446 168.24 263.15 171.856 268.449 171.856ZM257.576 179.092C258.885 176.601 258.94 173.684 257.714 171.04C256.506 168.429 254.268 166.589 251.731 166.115C251.212 166.015 250.685 165.965 250.156 165.965C247.075 165.965 245.058 167.764 243.108 169.502C242.398 170.135 241.728 170.737 241.012 171.247L240.512 171.613L241.026 171.966C241.19 172.072 241.604 172.7 241.936 173.178C242.993 174.695 243.873 175.925 244.808 175.925C245.138 175.925 245.446 175.534 246.518 174.329C246.97 173.822 247.481 173.177 247.755 172.96C248.981 171.987 250.661 170.654 252.495 170.654C252.743 170.654 252.992 170.678 253.234 170.727C254.083 170.897 254.596 171.29 254.801 171.93C255.222 173.24 254.256 175.248 253.427 176.135C253.008 176.583 252.551 176.906 252.065 177.248C251.37 177.739 250.651 178.246 250.056 179.139L249.863 179.429L250.114 179.672L251.195 180.727C252.126 181.638 253.088 182.58 254.076 183.47L254.407 183.769L254.685 183.42C255.311 182.635 255.972 181.799 256.619 180.945C256.795 181.203 256.978 181.469 257.169 181.74C258.599 183.784 260.219 186.1 259.162 189.127C258.375 191.382 255.717 192.851 252.723 192.635C249.182 192.387 246.03 189.365 243.086 183.395C242.902 183.022 242.751 182.604 242.605 182.199C242.264 181.251 241.91 180.272 241.087 179.664L240.262 179.054L240.424 180.067C241.289 185.459 243.822 190.661 247.201 193.985C249.246 195.998 252.6 197.299 255.747 197.299C259.382 197.299 263.277 195.41 263.304 190.107C263.328 185.141 260.261 181.915 257.796 179.324L257.576 179.092ZM280.517 174.538C279.541 172.722 275.869 171.397 274.028 171.801C271.238 172.409 269.282 173.988 267.557 175.381C265.79 176.807 264.264 178.039 262.227 178.039C261.615 178.039 260.989 177.93 260.314 177.707L259.241 177.352L259.822 178.32C261.158 180.544 262.718 181.625 264.591 181.625C266.112 181.625 267.67 180.895 269.213 179.951L269.559 180.977C270.343 183.298 273.754 186.74 276.86 186.74L277.046 186.735C278.401 186.675 279.533 185.911 280.319 184.525C281.93 181.686 281.748 176.825 280.517 174.538ZM271.346 178.55C273.636 176.993 276.042 175.395 278.012 175.743C278.87 177.233 278.52 178.516 278.064 179.341C277.194 180.911 275.287 182.008 273.427 182.008C272.55 182.008 271.292 181.759 270.276 180.57L269.561 179.734C270.158 179.356 270.754 178.951 271.346 178.55Z" fill="black" fill-opacity="0.4"/>
</g>
<path d="M224.836 236.679H226.097L229.063 243.923H229.166L232.132 236.679H233.393V245.406H232.404V238.776H232.319L229.592 245.406H228.637L225.91 238.776H225.825V245.406H224.836V236.679ZM236.381 241.469V245.406H235.376V236.679H236.381V239.884H236.466C236.62 239.545 236.85 239.277 237.157 239.078C237.466 238.876 237.878 238.776 238.393 238.776C238.839 238.776 239.229 238.865 239.564 239.044C239.9 239.22 240.16 239.491 240.344 239.858C240.532 240.222 240.626 240.685 240.626 241.247V245.406H239.62V241.315C239.62 240.795 239.485 240.393 239.215 240.109C238.948 239.822 238.577 239.679 238.103 239.679C237.773 239.679 237.478 239.749 237.216 239.888C236.958 240.027 236.753 240.23 236.603 240.497C236.455 240.764 236.381 241.088 236.381 241.469ZM245.21 245.543C244.579 245.543 244.035 245.403 243.578 245.125C243.123 244.844 242.772 244.452 242.525 243.949C242.281 243.443 242.159 242.855 242.159 242.185C242.159 241.514 242.281 240.923 242.525 240.412C242.772 239.898 243.116 239.497 243.556 239.21C243.999 238.92 244.517 238.776 245.107 238.776C245.448 238.776 245.785 238.832 246.117 238.946C246.45 239.06 246.752 239.244 247.025 239.5C247.298 239.753 247.515 240.088 247.677 240.506C247.839 240.923 247.92 241.437 247.92 242.048V242.474H242.874V241.605H246.897C246.897 241.236 246.823 240.906 246.676 240.616C246.531 240.327 246.323 240.098 246.053 239.93C245.786 239.763 245.471 239.679 245.107 239.679C244.707 239.679 244.36 239.778 244.068 239.977C243.778 240.173 243.555 240.429 243.399 240.744C243.242 241.06 243.164 241.398 243.164 241.759V242.338C243.164 242.832 243.249 243.251 243.42 243.595C243.593 243.936 243.833 244.196 244.14 244.375C244.447 244.551 244.803 244.639 245.21 244.639C245.474 244.639 245.713 244.602 245.926 244.528C246.142 244.452 246.328 244.338 246.484 244.188C246.64 244.034 246.761 243.844 246.846 243.616L247.818 243.889C247.715 244.219 247.544 244.509 247.302 244.759C247.061 245.006 246.762 245.199 246.407 245.338C246.052 245.474 245.653 245.543 245.21 245.543ZM249.45 247.861V238.861H250.421V239.901H250.541C250.615 239.787 250.717 239.642 250.847 239.466C250.981 239.287 251.171 239.128 251.419 238.989C251.669 238.847 252.007 238.776 252.433 238.776C252.984 238.776 253.47 238.913 253.89 239.189C254.311 239.464 254.639 239.855 254.874 240.361C255.11 240.866 255.228 241.463 255.228 242.151C255.228 242.844 255.11 243.445 254.874 243.953C254.639 244.459 254.312 244.851 253.894 245.129C253.477 245.405 252.995 245.543 252.45 245.543C252.029 245.543 251.693 245.473 251.44 245.334C251.187 245.192 250.992 245.031 250.856 244.852C250.72 244.67 250.615 244.52 250.541 244.401H250.455V247.861H249.45ZM250.438 242.134C250.438 242.628 250.511 243.064 250.656 243.442C250.801 243.817 251.012 244.111 251.291 244.324C251.569 244.534 251.91 244.639 252.313 244.639C252.734 244.639 253.085 244.528 253.366 244.307C253.65 244.082 253.863 243.781 254.005 243.403C254.15 243.023 254.222 242.599 254.222 242.134C254.222 241.673 254.151 241.259 254.009 240.889C253.87 240.517 253.659 240.223 253.374 240.007C253.093 239.788 252.74 239.679 252.313 239.679C251.904 239.679 251.561 239.783 251.282 239.99C251.004 240.195 250.794 240.482 250.651 240.851C250.509 241.217 250.438 241.645 250.438 242.134ZM256.762 245.406V238.861H257.768V245.406H256.762ZM257.274 237.77C257.078 237.77 256.909 237.703 256.767 237.57C256.627 237.436 256.558 237.276 256.558 237.088C256.558 236.901 256.627 236.74 256.767 236.607C256.909 236.473 257.078 236.406 257.274 236.406C257.47 236.406 257.637 236.473 257.776 236.607C257.919 236.74 257.99 236.901 257.99 237.088C257.99 237.276 257.919 237.436 257.776 237.57C257.637 237.703 257.47 237.77 257.274 237.77Z" fill="black" fill-opacity="0.43"/>
<g clip-path="url(#clip1_1245_387)">
<path d="M399.725 356.564C407.072 356.564 413.028 350.835 413.028 343.767C413.028 336.699 407.072 330.969 399.725 330.969C392.378 330.969 386.422 336.699 386.422 343.767C386.422 350.835 392.378 356.564 399.725 356.564Z" fill="#83BF4F"/>
<path d="M399.725 341.662C406.7 341.662 412.354 336.234 412.354 329.538C412.354 322.842 406.7 317.414 399.725 317.414C392.75 317.414 387.096 322.842 387.096 329.538C387.096 336.234 392.75 341.662 399.725 341.662Z" fill="#83BF4F"/>
<path d="M413.533 338.293C420.74 338.293 426.583 332.677 426.583 325.748C426.583 318.82 420.74 313.203 413.533 313.203C406.325 313.203 400.482 318.82 400.482 325.748C400.482 332.677 406.325 338.293 413.533 338.293Z" fill="#83BF4F"/>
<path d="M425.994 346.041C432.039 346.041 436.94 341.329 436.94 335.517C436.94 329.704 432.039 324.992 425.994 324.992C419.949 324.992 415.049 329.704 415.049 335.517C415.049 341.329 419.949 346.041 425.994 346.041Z" fill="#83BF4F"/>
<path d="M417.996 355.889C424.041 355.889 428.942 351.177 428.942 345.364C428.942 339.552 424.041 334.84 417.996 334.84C411.951 334.84 407.051 339.552 407.051 345.364C407.051 351.177 411.951 355.889 417.996 355.889Z" fill="#83BF4F"/>
<path d="M409.07 365.406C409.323 362.038 408.818 358.501 408.313 354.797C407.807 351.092 407.134 347.303 407.134 343.43C407.05 339.557 407.555 335.6 408.902 331.98C410.165 328.359 412.101 325.076 414.375 322.129C412.438 325.328 411.007 328.78 410.249 332.401C409.491 335.937 409.491 339.642 409.997 343.178C410.502 346.714 411.512 350.25 412.607 353.871C413.617 357.491 414.712 361.28 414.964 365.406H409.07Z" fill="#947151"/>
<path d="M408.65 341.998C410.334 342.167 412.186 342.082 413.954 341.914C415.722 341.746 417.49 341.325 419.174 340.735C420.858 340.146 422.458 339.304 423.889 338.209C425.321 337.115 426.583 335.768 427.51 334.168C426.668 335.768 425.573 337.283 424.142 338.546C422.795 339.809 421.195 340.735 419.427 341.493C417.743 342.251 415.891 342.756 414.122 343.177C412.27 343.514 410.418 343.766 408.481 343.682L408.65 341.998ZM408.145 340.819C406.882 340.062 405.787 339.22 404.777 338.378C403.766 337.452 402.756 336.441 401.914 335.431C400.23 333.242 398.967 330.632 398.799 327.938C399.22 330.632 400.735 332.989 402.588 334.842C403.514 335.768 404.524 336.61 405.619 337.367C406.713 338.125 407.892 338.799 408.987 339.304L408.145 340.819ZM409.492 350.418C408.06 350.334 406.713 350.081 405.366 349.744C404.019 349.407 402.756 348.902 401.493 348.229C399.051 346.882 396.947 344.945 395.684 342.503C397.199 344.777 399.388 346.461 401.83 347.387C403.009 347.892 404.356 348.229 405.619 348.481C406.882 348.734 408.229 348.818 409.492 348.734V350.418Z" fill="#947151"/>
<path d="M392.99 346.799C392.99 348.651 391.475 350.167 391.475 350.167C391.475 350.167 389.959 348.651 389.959 346.799C389.959 344.947 391.475 343.431 391.475 343.431C391.475 343.431 392.99 344.947 392.99 346.799ZM431.973 339.558C431.973 341.41 430.457 342.926 430.457 342.926C430.457 342.926 428.942 341.41 428.942 339.558C428.942 337.706 430.457 336.19 430.457 336.19C430.457 336.19 431.973 337.706 431.973 339.558ZM397.2 351.093C397.2 352.945 395.684 354.461 395.684 354.461C395.684 354.461 394.169 352.945 394.169 351.093C394.169 349.241 395.684 347.725 395.684 347.725C395.684 347.725 397.2 349.241 397.2 351.093ZM392.99 329.118C392.99 330.97 391.475 332.486 391.475 332.486C391.475 332.486 389.959 330.97 389.959 329.118C389.959 327.265 391.475 325.75 391.475 325.75C391.475 325.75 392.99 327.265 392.99 329.118ZM397.2 324.234C397.2 326.087 395.684 327.602 395.684 327.602C395.684 327.602 394.169 326.087 394.169 324.234C394.169 322.382 395.684 320.867 395.684 320.867C395.684 320.867 397.2 322.382 397.2 324.234ZM418.838 326.676C418.838 328.528 417.323 330.044 417.323 330.044C417.323 330.044 415.891 328.528 415.891 326.676C415.891 324.824 417.407 323.308 417.407 323.308C417.407 323.308 418.838 324.824 418.838 326.676ZM423.048 322.13C423.048 323.982 421.532 325.497 421.532 325.497C421.532 325.497 420.017 323.982 420.017 322.13C420.017 320.277 421.532 318.762 421.532 318.762C421.532 318.762 423.048 320.277 423.048 322.13ZM403.43 341.663C403.43 343.515 401.915 345.031 401.915 345.031C401.915 345.031 400.399 343.515 400.399 341.663C400.399 339.811 401.915 338.295 401.915 338.295C401.915 338.295 403.43 339.811 403.43 341.663ZM398.715 337.369C398.715 339.221 397.2 340.737 397.2 340.737C397.2 340.737 395.684 339.221 395.684 337.369C395.684 335.517 397.2 334.001 397.2 334.001C397.2 334.001 398.715 335.517 398.715 337.369ZM406.714 329.118C406.714 330.97 405.198 332.486 405.198 332.486C405.198 332.486 403.683 330.97 403.683 329.118C403.683 327.265 405.198 325.75 405.198 325.75C405.198 325.75 406.714 327.265 406.714 329.118ZM409.998 323.308C409.998 325.161 408.482 326.676 408.482 326.676C408.482 326.676 406.967 325.161 406.967 323.308C406.967 321.456 408.482 319.94 408.482 319.94C408.482 319.94 409.998 321.456 409.998 323.308ZM414.544 337.369C414.544 339.221 413.029 340.737 413.029 340.737C413.029 340.737 411.513 339.221 411.513 337.369C411.513 335.517 413.029 334.001 413.029 334.001C413.029 334.001 414.544 335.517 414.544 337.369ZM425.995 345.031C425.995 346.883 424.479 348.399 424.479 348.399C424.479 348.399 422.964 346.883 422.964 345.031C422.964 343.178 424.479 341.663 424.479 341.663C424.479 341.663 425.995 343.178 425.995 345.031ZM423.048 330.97C423.048 332.822 421.532 334.338 421.532 334.338C421.532 334.338 420.017 332.822 420.017 330.97C420.017 329.118 421.532 327.602 421.532 327.602C421.532 327.602 423.048 329.118 423.048 330.97ZM417.996 347.725C417.996 349.577 416.481 351.093 416.481 351.093C416.481 351.093 414.965 349.577 414.965 347.725C414.965 345.873 416.481 344.357 416.481 344.357C416.481 344.357 417.996 345.873 417.996 347.725ZM421.953 351.514C421.953 353.366 420.438 354.882 420.438 354.882C420.438 354.882 418.922 353.366 418.922 351.514C418.922 349.662 420.438 348.146 420.438 348.146C420.438 348.146 421.953 349.662 421.953 351.514Z" fill="#75A843"/>
</g>
<g clip-path="url(#clip2_1245_387)">
<path d="M410.725 357.564C418.072 357.564 424.028 351.835 424.028 344.767C424.028 337.699 418.072 331.969 410.725 331.969C403.378 331.969 397.422 337.699 397.422 344.767C397.422 351.835 403.378 357.564 410.725 357.564Z" fill="#83BF4F"/>
<path d="M410.725 342.662C417.7 342.662 423.354 337.234 423.354 330.538C423.354 323.842 417.7 318.414 410.725 318.414C403.75 318.414 398.096 323.842 398.096 330.538C398.096 337.234 403.75 342.662 410.725 342.662Z" fill="#83BF4F"/>
<path d="M424.533 339.293C431.74 339.293 437.583 333.677 437.583 326.748C437.583 319.82 431.74 314.203 424.533 314.203C417.325 314.203 411.482 319.82 411.482 326.748C411.482 333.677 417.325 339.293 424.533 339.293Z" fill="#83BF4F"/>
<path d="M436.994 347.041C443.039 347.041 447.94 342.329 447.94 336.517C447.94 330.704 443.039 325.992 436.994 325.992C430.949 325.992 426.049 330.704 426.049 336.517C426.049 342.329 430.949 347.041 436.994 347.041Z" fill="#83BF4F"/>
<path d="M428.996 356.889C435.041 356.889 439.942 352.177 439.942 346.364C439.942 340.552 435.041 335.84 428.996 335.84C422.951 335.84 418.051 340.552 418.051 346.364C418.051 352.177 422.951 356.889 428.996 356.889Z" fill="#83BF4F"/>
<path d="M420.07 366.406C420.323 363.038 419.818 359.501 419.313 355.797C418.807 352.092 418.134 348.303 418.134 344.43C418.05 340.557 418.555 336.6 419.902 332.98C421.165 329.359 423.101 326.076 425.375 323.129C423.438 326.328 422.007 329.78 421.249 333.401C420.491 336.937 420.491 340.642 420.997 344.178C421.502 347.714 422.512 351.25 423.607 354.871C424.617 358.491 425.712 362.28 425.964 366.406H420.07Z" fill="#947151"/>
<path d="M419.65 342.998C421.334 343.167 423.186 343.082 424.954 342.914C426.722 342.746 428.49 342.325 430.174 341.735C431.858 341.146 433.458 340.304 434.889 339.209C436.321 338.115 437.583 336.768 438.51 335.168C437.668 336.768 436.573 338.283 435.142 339.546C433.795 340.809 432.195 341.735 430.427 342.493C428.743 343.251 426.891 343.756 425.122 344.177C423.27 344.514 421.418 344.766 419.481 344.682L419.65 342.998ZM419.145 341.819C417.882 341.062 416.787 340.22 415.777 339.378C414.766 338.452 413.756 337.441 412.914 336.431C411.23 334.242 409.967 331.632 409.799 328.938C410.22 331.632 411.735 333.989 413.588 335.842C414.514 336.768 415.524 337.61 416.619 338.367C417.713 339.125 418.892 339.799 419.987 340.304L419.145 341.819ZM420.492 351.418C419.06 351.334 417.713 351.081 416.366 350.744C415.019 350.407 413.756 349.902 412.493 349.229C410.051 347.882 407.947 345.945 406.684 343.503C408.199 345.777 410.388 347.461 412.83 348.387C414.009 348.892 415.356 349.229 416.619 349.481C417.882 349.734 419.229 349.818 420.492 349.734V351.418Z" fill="#947151"/>
<path d="M403.99 347.799C403.99 349.651 402.475 351.167 402.475 351.167C402.475 351.167 400.959 349.651 400.959 347.799C400.959 345.947 402.475 344.431 402.475 344.431C402.475 344.431 403.99 345.947 403.99 347.799ZM442.973 340.558C442.973 342.41 441.457 343.926 441.457 343.926C441.457 343.926 439.942 342.41 439.942 340.558C439.942 338.706 441.457 337.19 441.457 337.19C441.457 337.19 442.973 338.706 442.973 340.558ZM408.2 352.093C408.2 353.945 406.684 355.461 406.684 355.461C406.684 355.461 405.169 353.945 405.169 352.093C405.169 350.241 406.684 348.725 406.684 348.725C406.684 348.725 408.2 350.241 408.2 352.093ZM403.99 330.118C403.99 331.97 402.475 333.486 402.475 333.486C402.475 333.486 400.959 331.97 400.959 330.118C400.959 328.265 402.475 326.75 402.475 326.75C402.475 326.75 403.99 328.265 403.99 330.118ZM408.2 325.234C408.2 327.087 406.684 328.602 406.684 328.602C406.684 328.602 405.169 327.087 405.169 325.234C405.169 323.382 406.684 321.867 406.684 321.867C406.684 321.867 408.2 323.382 408.2 325.234ZM429.838 327.676C429.838 329.528 428.323 331.044 428.323 331.044C428.323 331.044 426.891 329.528 426.891 327.676C426.891 325.824 428.407 324.308 428.407 324.308C428.407 324.308 429.838 325.824 429.838 327.676ZM434.048 323.13C434.048 324.982 432.532 326.497 432.532 326.497C432.532 326.497 431.017 324.982 431.017 323.13C431.017 321.277 432.532 319.762 432.532 319.762C432.532 319.762 434.048 321.277 434.048 323.13ZM414.43 342.663C414.43 344.515 412.915 346.031 412.915 346.031C412.915 346.031 411.399 344.515 411.399 342.663C411.399 340.811 412.915 339.295 412.915 339.295C412.915 339.295 414.43 340.811 414.43 342.663ZM409.715 338.369C409.715 340.221 408.2 341.737 408.2 341.737C408.2 341.737 406.684 340.221 406.684 338.369C406.684 336.517 408.2 335.001 408.2 335.001C408.2 335.001 409.715 336.517 409.715 338.369ZM417.714 330.118C417.714 331.97 416.198 333.486 416.198 333.486C416.198 333.486 414.683 331.97 414.683 330.118C414.683 328.265 416.198 326.75 416.198 326.75C416.198 326.75 417.714 328.265 417.714 330.118ZM420.998 324.308C420.998 326.161 419.482 327.676 419.482 327.676C419.482 327.676 417.967 326.161 417.967 324.308C417.967 322.456 419.482 320.94 419.482 320.94C419.482 320.94 420.998 322.456 420.998 324.308ZM425.544 338.369C425.544 340.221 424.029 341.737 424.029 341.737C424.029 341.737 422.513 340.221 422.513 338.369C422.513 336.517 424.029 335.001 424.029 335.001C424.029 335.001 425.544 336.517 425.544 338.369ZM436.995 346.031C436.995 347.883 435.479 349.399 435.479 349.399C435.479 349.399 433.964 347.883 433.964 346.031C433.964 344.178 435.479 342.663 435.479 342.663C435.479 342.663 436.995 344.178 436.995 346.031ZM434.048 331.97C434.048 333.822 432.532 335.338 432.532 335.338C432.532 335.338 431.017 333.822 431.017 331.97C431.017 330.118 432.532 328.602 432.532 328.602C432.532 328.602 434.048 330.118 434.048 331.97ZM428.996 348.725C428.996 350.577 427.481 352.093 427.481 352.093C427.481 352.093 425.965 350.577 425.965 348.725C425.965 346.873 427.481 345.357 427.481 345.357C427.481 345.357 428.996 346.873 428.996 348.725ZM432.953 352.514C432.953 354.366 431.438 355.882 431.438 355.882C431.438 355.882 429.922 354.366 429.922 352.514C429.922 350.662 431.438 349.146 431.438 349.146C431.438 349.146 432.953 350.662 432.953 352.514Z" fill="#75A843"/>
</g>
<g clip-path="url(#clip3_1245_387)">
<path d="M167.725 300.564C175.072 300.564 181.028 294.835 181.028 287.767C181.028 280.699 175.072 274.969 167.725 274.969C160.378 274.969 154.422 280.699 154.422 287.767C154.422 294.835 160.378 300.564 167.725 300.564Z" fill="#83BF4F"/>
<path d="M167.725 285.662C174.7 285.662 180.354 280.234 180.354 273.538C180.354 266.842 174.7 261.414 167.725 261.414C160.75 261.414 155.096 266.842 155.096 273.538C155.096 280.234 160.75 285.662 167.725 285.662Z" fill="#83BF4F"/>
<path d="M181.533 282.293C188.74 282.293 194.583 276.677 194.583 269.748C194.583 262.82 188.74 257.203 181.533 257.203C174.325 257.203 168.482 262.82 168.482 269.748C168.482 276.677 174.325 282.293 181.533 282.293Z" fill="#83BF4F"/>
<path d="M193.994 290.041C200.039 290.041 204.94 285.329 204.94 279.517C204.94 273.704 200.039 268.992 193.994 268.992C187.949 268.992 183.049 273.704 183.049 279.517C183.049 285.329 187.949 290.041 193.994 290.041Z" fill="#83BF4F"/>
<path d="M185.996 299.889C192.041 299.889 196.942 295.177 196.942 289.364C196.942 283.552 192.041 278.84 185.996 278.84C179.951 278.84 175.051 283.552 175.051 289.364C175.051 295.177 179.951 299.889 185.996 299.889Z" fill="#83BF4F"/>
<path d="M177.07 309.406C177.323 306.038 176.818 302.501 176.313 298.797C175.807 295.092 175.134 291.303 175.134 287.43C175.05 283.557 175.555 279.6 176.902 275.98C178.165 272.359 180.101 269.076 182.375 266.129C180.438 269.328 179.007 272.78 178.249 276.401C177.491 279.937 177.491 283.642 177.997 287.178C178.502 290.714 179.512 294.25 180.607 297.871C181.617 301.491 182.712 305.28 182.964 309.406H177.07Z" fill="#947151"/>
<path d="M176.65 285.998C178.334 286.167 180.186 286.082 181.954 285.914C183.722 285.746 185.49 285.325 187.174 284.735C188.858 284.146 190.458 283.304 191.889 282.209C193.321 281.115 194.583 279.768 195.51 278.168C194.668 279.768 193.573 281.283 192.142 282.546C190.795 283.809 189.195 284.735 187.427 285.493C185.743 286.251 183.891 286.756 182.122 287.177C180.27 287.514 178.418 287.766 176.481 287.682L176.65 285.998ZM176.145 284.819C174.882 284.062 173.787 283.22 172.777 282.378C171.766 281.452 170.756 280.441 169.914 279.431C168.23 277.242 166.967 274.632 166.799 271.938C167.22 274.632 168.735 276.989 170.588 278.842C171.514 279.768 172.524 280.61 173.619 281.367C174.713 282.125 175.892 282.799 176.987 283.304L176.145 284.819ZM177.492 294.418C176.06 294.334 174.713 294.081 173.366 293.744C172.019 293.407 170.756 292.902 169.493 292.229C167.051 290.882 164.947 288.945 163.684 286.503C165.199 288.777 167.388 290.461 169.83 291.387C171.009 291.892 172.356 292.229 173.619 292.481C174.882 292.734 176.229 292.818 177.492 292.734V294.418Z" fill="#947151"/>
<path d="M160.99 290.799C160.99 292.651 159.475 294.167 159.475 294.167C159.475 294.167 157.959 292.651 157.959 290.799C157.959 288.947 159.475 287.431 159.475 287.431C159.475 287.431 160.99 288.947 160.99 290.799ZM199.973 283.558C199.973 285.41 198.457 286.926 198.457 286.926C198.457 286.926 196.942 285.41 196.942 283.558C196.942 281.706 198.457 280.19 198.457 280.19C198.457 280.19 199.973 281.706 199.973 283.558ZM165.2 295.093C165.2 296.945 163.684 298.461 163.684 298.461C163.684 298.461 162.169 296.945 162.169 295.093C162.169 293.241 163.684 291.725 163.684 291.725C163.684 291.725 165.2 293.241 165.2 295.093ZM160.99 273.118C160.99 274.97 159.475 276.486 159.475 276.486C159.475 276.486 157.959 274.97 157.959 273.118C157.959 271.265 159.475 269.75 159.475 269.75C159.475 269.75 160.99 271.265 160.99 273.118ZM165.2 268.234C165.2 270.087 163.684 271.602 163.684 271.602C163.684 271.602 162.169 270.087 162.169 268.234C162.169 266.382 163.684 264.867 163.684 264.867C163.684 264.867 165.2 266.382 165.2 268.234ZM186.838 270.676C186.838 272.528 185.323 274.044 185.323 274.044C185.323 274.044 183.891 272.528 183.891 270.676C183.891 268.824 185.407 267.308 185.407 267.308C185.407 267.308 186.838 268.824 186.838 270.676ZM191.048 266.13C191.048 267.982 189.532 269.497 189.532 269.497C189.532 269.497 188.017 267.982 188.017 266.13C188.017 264.277 189.532 262.762 189.532 262.762C189.532 262.762 191.048 264.277 191.048 266.13ZM171.43 285.663C171.43 287.515 169.915 289.031 169.915 289.031C169.915 289.031 168.399 287.515 168.399 285.663C168.399 283.811 169.915 282.295 169.915 282.295C169.915 282.295 171.43 283.811 171.43 285.663ZM166.715 281.369C166.715 283.221 165.2 284.737 165.2 284.737C165.2 284.737 163.684 283.221 163.684 281.369C163.684 279.517 165.2 278.001 165.2 278.001C165.2 278.001 166.715 279.517 166.715 281.369ZM174.714 273.118C174.714 274.97 173.198 276.486 173.198 276.486C173.198 276.486 171.683 274.97 171.683 273.118C171.683 271.265 173.198 269.75 173.198 269.75C173.198 269.75 174.714 271.265 174.714 273.118ZM177.998 267.308C177.998 269.161 176.482 270.676 176.482 270.676C176.482 270.676 174.967 269.161 174.967 267.308C174.967 265.456 176.482 263.94 176.482 263.94C176.482 263.94 177.998 265.456 177.998 267.308ZM182.544 281.369C182.544 283.221 181.029 284.737 181.029 284.737C181.029 284.737 179.513 283.221 179.513 281.369C179.513 279.517 181.029 278.001 181.029 278.001C181.029 278.001 182.544 279.517 182.544 281.369ZM193.995 289.031C193.995 290.883 192.479 292.399 192.479 292.399C192.479 292.399 190.964 290.883 190.964 289.031C190.964 287.178 192.479 285.663 192.479 285.663C192.479 285.663 193.995 287.178 193.995 289.031ZM191.048 274.97C191.048 276.822 189.532 278.338 189.532 278.338C189.532 278.338 188.017 276.822 188.017 274.97C188.017 273.118 189.532 271.602 189.532 271.602C189.532 271.602 191.048 273.118 191.048 274.97ZM185.996 291.725C185.996 293.577 184.481 295.093 184.481 295.093C184.481 295.093 182.965 293.577 182.965 291.725C182.965 289.873 184.481 288.357 184.481 288.357C184.481 288.357 185.996 289.873 185.996 291.725ZM189.953 295.514C189.953 297.366 188.438 298.882 188.438 298.882C188.438 298.882 186.922 297.366 186.922 295.514C186.922 293.662 188.438 292.146 188.438 292.146C188.438 292.146 189.953 293.662 189.953 295.514Z" fill="#75A843"/>
</g>
<g clip-path="url(#clip4_1245_387)">
<path d="M178.725 301.564C186.072 301.564 192.028 295.835 192.028 288.767C192.028 281.699 186.072 275.969 178.725 275.969C171.378 275.969 165.422 281.699 165.422 288.767C165.422 295.835 171.378 301.564 178.725 301.564Z" fill="#83BF4F"/>
<path d="M178.725 286.662C185.7 286.662 191.354 281.234 191.354 274.538C191.354 267.842 185.7 262.414 178.725 262.414C171.75 262.414 166.096 267.842 166.096 274.538C166.096 281.234 171.75 286.662 178.725 286.662Z" fill="#83BF4F"/>
<path d="M192.533 283.293C199.74 283.293 205.583 277.677 205.583 270.748C205.583 263.82 199.74 258.203 192.533 258.203C185.325 258.203 179.482 263.82 179.482 270.748C179.482 277.677 185.325 283.293 192.533 283.293Z" fill="#83BF4F"/>
<path d="M204.994 291.041C211.039 291.041 215.94 286.329 215.94 280.517C215.94 274.704 211.039 269.992 204.994 269.992C198.949 269.992 194.049 274.704 194.049 280.517C194.049 286.329 198.949 291.041 204.994 291.041Z" fill="#83BF4F"/>
<path d="M196.996 300.889C203.041 300.889 207.942 296.177 207.942 290.364C207.942 284.552 203.041 279.84 196.996 279.84C190.951 279.84 186.051 284.552 186.051 290.364C186.051 296.177 190.951 300.889 196.996 300.889Z" fill="#83BF4F"/>
<path d="M188.07 310.406C188.323 307.038 187.818 303.501 187.313 299.797C186.807 296.092 186.134 292.303 186.134 288.43C186.05 284.557 186.555 280.6 187.902 276.98C189.165 273.359 191.101 270.076 193.375 267.129C191.438 270.328 190.007 273.78 189.249 277.401C188.491 280.937 188.491 284.642 188.997 288.178C189.502 291.714 190.512 295.25 191.607 298.871C192.617 302.491 193.712 306.28 193.964 310.406H188.07Z" fill="#947151"/>
<path d="M187.65 286.998C189.334 287.167 191.186 287.082 192.954 286.914C194.722 286.746 196.49 286.325 198.174 285.735C199.858 285.146 201.458 284.304 202.889 283.209C204.321 282.115 205.583 280.768 206.51 279.168C205.668 280.768 204.573 282.283 203.142 283.546C201.795 284.809 200.195 285.735 198.427 286.493C196.743 287.251 194.891 287.756 193.122 288.177C191.27 288.514 189.418 288.766 187.481 288.682L187.65 286.998ZM187.145 285.819C185.882 285.062 184.787 284.22 183.777 283.378C182.766 282.452 181.756 281.441 180.914 280.431C179.23 278.242 177.967 275.632 177.799 272.938C178.22 275.632 179.735 277.989 181.588 279.842C182.514 280.768 183.524 281.61 184.619 282.367C185.713 283.125 186.892 283.799 187.987 284.304L187.145 285.819ZM188.492 295.418C187.06 295.334 185.713 295.081 184.366 294.744C183.019 294.407 181.756 293.902 180.493 293.229C178.051 291.882 175.947 289.945 174.684 287.503C176.199 289.777 178.388 291.461 180.83 292.387C182.009 292.892 183.356 293.229 184.619 293.481C185.882 293.734 187.229 293.818 188.492 293.734V295.418Z" fill="#947151"/>
<path d="M171.99 291.799C171.99 293.651 170.475 295.167 170.475 295.167C170.475 295.167 168.959 293.651 168.959 291.799C168.959 289.947 170.475 288.431 170.475 288.431C170.475 288.431 171.99 289.947 171.99 291.799ZM210.973 284.558C210.973 286.41 209.457 287.926 209.457 287.926C209.457 287.926 207.942 286.41 207.942 284.558C207.942 282.706 209.457 281.19 209.457 281.19C209.457 281.19 210.973 282.706 210.973 284.558ZM176.2 296.093C176.2 297.945 174.684 299.461 174.684 299.461C174.684 299.461 173.169 297.945 173.169 296.093C173.169 294.241 174.684 292.725 174.684 292.725C174.684 292.725 176.2 294.241 176.2 296.093ZM171.99 274.118C171.99 275.97 170.475 277.486 170.475 277.486C170.475 277.486 168.959 275.97 168.959 274.118C168.959 272.265 170.475 270.75 170.475 270.75C170.475 270.75 171.99 272.265 171.99 274.118ZM176.2 269.234C176.2 271.087 174.684 272.602 174.684 272.602C174.684 272.602 173.169 271.087 173.169 269.234C173.169 267.382 174.684 265.867 174.684 265.867C174.684 265.867 176.2 267.382 176.2 269.234ZM197.838 271.676C197.838 273.528 196.323 275.044 196.323 275.044C196.323 275.044 194.891 273.528 194.891 271.676C194.891 269.824 196.407 268.308 196.407 268.308C196.407 268.308 197.838 269.824 197.838 271.676ZM202.048 267.13C202.048 268.982 200.532 270.497 200.532 270.497C200.532 270.497 199.017 268.982 199.017 267.13C199.017 265.277 200.532 263.762 200.532 263.762C200.532 263.762 202.048 265.277 202.048 267.13ZM182.43 286.663C182.43 288.515 180.915 290.031 180.915 290.031C180.915 290.031 179.399 288.515 179.399 286.663C179.399 284.811 180.915 283.295 180.915 283.295C180.915 283.295 182.43 284.811 182.43 286.663ZM177.715 282.369C177.715 284.221 176.2 285.737 176.2 285.737C176.2 285.737 174.684 284.221 174.684 282.369C174.684 280.517 176.2 279.001 176.2 279.001C176.2 279.001 177.715 280.517 177.715 282.369ZM185.714 274.118C185.714 275.97 184.198 277.486 184.198 277.486C184.198 277.486 182.683 275.97 182.683 274.118C182.683 272.265 184.198 270.75 184.198 270.75C184.198 270.75 185.714 272.265 185.714 274.118ZM188.998 268.308C188.998 270.161 187.482 271.676 187.482 271.676C187.482 271.676 185.967 270.161 185.967 268.308C185.967 266.456 187.482 264.94 187.482 264.94C187.482 264.94 188.998 266.456 188.998 268.308ZM193.544 282.369C193.544 284.221 192.029 285.737 192.029 285.737C192.029 285.737 190.513 284.221 190.513 282.369C190.513 280.517 192.029 279.001 192.029 279.001C192.029 279.001 193.544 280.517 193.544 282.369ZM204.995 290.031C204.995 291.883 203.479 293.399 203.479 293.399C203.479 293.399 201.964 291.883 201.964 290.031C201.964 288.178 203.479 286.663 203.479 286.663C203.479 286.663 204.995 288.178 204.995 290.031ZM202.048 275.97C202.048 277.822 200.532 279.338 200.532 279.338C200.532 279.338 199.017 277.822 199.017 275.97C199.017 274.118 200.532 272.602 200.532 272.602C200.532 272.602 202.048 274.118 202.048 275.97ZM196.996 292.725C196.996 294.577 195.481 296.093 195.481 296.093C195.481 296.093 193.965 294.577 193.965 292.725C193.965 290.873 195.481 289.357 195.481 289.357C195.481 289.357 196.996 290.873 196.996 292.725ZM200.953 296.514C200.953 298.366 199.438 299.882 199.438 299.882C199.438 299.882 197.922 298.366 197.922 296.514C197.922 294.662 199.438 293.146 199.438 293.146C199.438 293.146 200.953 294.662 200.953 296.514Z" fill="#75A843"/>
</g>
<g clip-path="url(#clip5_1245_387)">
<path d="M307.725 83.5643C315.072 83.5643 321.028 77.8345 321.028 70.7665C321.028 63.6985 315.072 57.9688 307.725 57.9688C300.378 57.9688 294.422 63.6985 294.422 70.7665C294.422 77.8345 300.378 83.5643 307.725 83.5643Z" fill="#83BF4F"/>
<path d="M307.725 68.6624C314.7 68.6624 320.354 63.2343 320.354 56.5383C320.354 49.8422 314.7 44.4141 307.725 44.4141C300.75 44.4141 295.096 49.8422 295.096 56.5383C295.096 63.2343 300.75 68.6624 307.725 68.6624Z" fill="#83BF4F"/>
<path d="M321.533 65.2935C328.74 65.2935 334.583 59.6768 334.583 52.7483C334.583 45.8198 328.74 40.2031 321.533 40.2031C314.325 40.2031 308.482 45.8198 308.482 52.7483C308.482 59.6768 314.325 65.2935 321.533 65.2935Z" fill="#83BF4F"/>
<path d="M333.994 73.0411C340.039 73.0411 344.94 68.3292 344.94 62.5167C344.94 56.7042 340.039 51.9922 333.994 51.9922C327.949 51.9922 323.049 56.7042 323.049 62.5167C323.049 68.3292 327.949 73.0411 333.994 73.0411Z" fill="#83BF4F"/>
<path d="M325.996 82.8888C332.041 82.8888 336.942 78.1768 336.942 72.3643C336.942 66.5518 332.041 61.8398 325.996 61.8398C319.951 61.8398 315.051 66.5518 315.051 72.3643C315.051 78.1768 319.951 82.8888 325.996 82.8888Z" fill="#83BF4F"/>
<path d="M317.07 92.4055C317.323 89.0377 316.818 85.5015 316.313 81.7969C315.807 78.0923 315.134 74.3034 315.134 70.4304C315.05 66.5574 315.555 62.6002 316.902 58.9798C318.165 55.3594 320.101 52.0758 322.375 49.1289C320.438 52.3283 319.007 55.7804 318.249 59.4008C317.491 62.937 317.491 66.6416 317.997 70.1779C318.502 73.7141 319.512 77.2503 320.607 80.8707C321.617 84.4911 322.712 88.2799 322.964 92.4055H317.07Z" fill="#947151"/>
<path d="M316.65 68.9982C318.334 69.1666 320.186 69.0824 321.954 68.914C323.722 68.7456 325.49 68.3246 327.174 67.7353C328.858 67.1459 330.458 66.3039 331.889 65.2094C333.321 64.1148 334.583 62.7677 335.51 61.168C334.668 62.7677 333.573 64.2832 332.142 65.5462C330.795 66.8091 329.195 67.7353 327.427 68.493C325.743 69.2508 323.891 69.756 322.122 70.1769C320.27 70.5137 318.418 70.7663 316.481 70.6821L316.65 68.9982ZM316.145 67.8195C314.882 67.0617 313.787 66.2197 312.777 65.3778C311.766 64.4516 310.756 63.4413 309.914 62.4309C308.23 60.2418 306.967 57.6318 306.799 54.9375C307.22 57.6318 308.735 59.9892 310.588 61.8416C311.514 62.7677 312.524 63.6097 313.619 64.3674C314.713 65.1252 315.892 65.7988 316.987 66.3039L316.145 67.8195ZM317.492 77.4178C316.06 77.3336 314.713 77.081 313.366 76.7442C312.019 76.4074 310.756 75.9022 309.493 75.2287C307.051 73.8815 304.947 71.945 303.684 69.5034C305.199 71.7767 307.388 73.4606 309.83 74.3867C311.009 74.8919 312.356 75.2287 313.619 75.4813C314.882 75.7339 316.229 75.8181 317.492 75.7339V77.4178Z" fill="#947151"/>
<path d="M300.99 73.7989C300.99 75.6512 299.475 77.1667 299.475 77.1667C299.475 77.1667 297.959 75.6512 297.959 73.7989C297.959 71.9466 299.475 70.4311 299.475 70.4311C299.475 70.4311 300.99 71.9466 300.99 73.7989ZM339.973 66.5581C339.973 68.4104 338.457 69.9259 338.457 69.9259C338.457 69.9259 336.942 68.4104 336.942 66.5581C336.942 64.7058 338.457 63.1902 338.457 63.1902C338.457 63.1902 339.973 64.7058 339.973 66.5581ZM305.2 78.0929C305.2 79.9452 303.684 81.4607 303.684 81.4607C303.684 81.4607 302.169 79.9452 302.169 78.0929C302.169 76.2406 303.684 74.7251 303.684 74.7251C303.684 74.7251 305.2 76.2406 305.2 78.0929ZM300.99 56.1178C300.99 57.9701 299.475 59.4856 299.475 59.4856C299.475 59.4856 297.959 57.9701 297.959 56.1178C297.959 54.2655 299.475 52.75 299.475 52.75C299.475 52.75 300.99 54.2655 300.99 56.1178ZM305.2 51.2344C305.2 53.0868 303.684 54.6023 303.684 54.6023C303.684 54.6023 302.169 53.0868 302.169 51.2344C302.169 49.3821 303.684 47.8666 303.684 47.8666C303.684 47.8666 305.2 49.3821 305.2 51.2344ZM326.838 53.6761C326.838 55.5284 325.323 57.044 325.323 57.044C325.323 57.044 323.891 55.5284 323.891 53.6761C323.891 51.8238 325.407 50.3083 325.407 50.3083C325.407 50.3083 326.838 51.8238 326.838 53.6761ZM331.048 49.1295C331.048 50.9819 329.532 52.4974 329.532 52.4974C329.532 52.4974 328.017 50.9819 328.017 49.1295C328.017 47.2772 329.532 45.7617 329.532 45.7617C329.532 45.7617 331.048 47.2772 331.048 49.1295ZM311.43 68.663C311.43 70.5153 309.915 72.0308 309.915 72.0308C309.915 72.0308 308.399 70.5153 308.399 68.663C308.399 66.8107 309.915 65.2951 309.915 65.2951C309.915 65.2951 311.43 66.8107 311.43 68.663ZM306.715 64.369C306.715 66.2213 305.2 67.7368 305.2 67.7368C305.2 67.7368 303.684 66.2213 303.684 64.369C303.684 62.5167 305.2 61.0012 305.2 61.0012C305.2 61.0012 306.715 62.5167 306.715 64.369ZM314.714 56.1178C314.714 57.9701 313.198 59.4856 313.198 59.4856C313.198 59.4856 311.683 57.9701 311.683 56.1178C311.683 54.2655 313.198 52.75 313.198 52.75C313.198 52.75 314.714 54.2655 314.714 56.1178ZM317.998 50.3083C317.998 52.1606 316.482 53.6761 316.482 53.6761C316.482 53.6761 314.967 52.1606 314.967 50.3083C314.967 48.456 316.482 46.9405 316.482 46.9405C316.482 46.9405 317.998 48.456 317.998 50.3083ZM322.544 64.369C322.544 66.2213 321.029 67.7368 321.029 67.7368C321.029 67.7368 319.513 66.2213 319.513 64.369C319.513 62.5167 321.029 61.0012 321.029 61.0012C321.029 61.0012 322.544 62.5167 322.544 64.369ZM333.995 72.0308C333.995 73.8831 332.479 75.3986 332.479 75.3986C332.479 75.3986 330.964 73.8831 330.964 72.0308C330.964 70.1785 332.479 68.663 332.479 68.663C332.479 68.663 333.995 70.1785 333.995 72.0308ZM331.048 57.9701C331.048 59.8224 329.532 61.3379 329.532 61.3379C329.532 61.3379 328.017 59.8224 328.017 57.9701C328.017 56.1178 329.532 54.6023 329.532 54.6023C329.532 54.6023 331.048 56.1178 331.048 57.9701ZM325.996 74.7251C325.996 76.5774 324.481 78.0929 324.481 78.0929C324.481 78.0929 322.965 76.5774 322.965 74.7251C322.965 72.8728 324.481 71.3572 324.481 71.3572C324.481 71.3572 325.996 72.8728 325.996 74.7251ZM329.953 78.5139C329.953 80.3662 328.438 81.8817 328.438 81.8817C328.438 81.8817 326.922 80.3662 326.922 78.5139C326.922 76.6616 328.438 75.146 328.438 75.146C328.438 75.146 329.953 76.6616 329.953 78.5139Z" fill="#75A843"/>
</g>
<g clip-path="url(#clip6_1245_387)">
<path d="M318.725 84.5643C326.072 84.5643 332.028 78.8345 332.028 71.7665C332.028 64.6985 326.072 58.9688 318.725 58.9688C311.378 58.9688 305.422 64.6985 305.422 71.7665C305.422 78.8345 311.378 84.5643 318.725 84.5643Z" fill="#83BF4F"/>
<path d="M318.725 69.6624C325.7 69.6624 331.354 64.2343 331.354 57.5383C331.354 50.8422 325.7 45.4141 318.725 45.4141C311.75 45.4141 306.096 50.8422 306.096 57.5383C306.096 64.2343 311.75 69.6624 318.725 69.6624Z" fill="#83BF4F"/>
<path d="M332.533 66.2935C339.74 66.2935 345.583 60.6768 345.583 53.7483C345.583 46.8198 339.74 41.2031 332.533 41.2031C325.325 41.2031 319.482 46.8198 319.482 53.7483C319.482 60.6768 325.325 66.2935 332.533 66.2935Z" fill="#83BF4F"/>
<path d="M344.994 74.0411C351.039 74.0411 355.94 69.3292 355.94 63.5167C355.94 57.7042 351.039 52.9922 344.994 52.9922C338.949 52.9922 334.049 57.7042 334.049 63.5167C334.049 69.3292 338.949 74.0411 344.994 74.0411Z" fill="#83BF4F"/>
<path d="M336.996 83.8888C343.041 83.8888 347.942 79.1768 347.942 73.3643C347.942 67.5518 343.041 62.8398 336.996 62.8398C330.951 62.8398 326.051 67.5518 326.051 73.3643C326.051 79.1768 330.951 83.8888 336.996 83.8888Z" fill="#83BF4F"/>
<path d="M328.07 93.4055C328.323 90.0377 327.818 86.5015 327.313 82.7969C326.807 79.0923 326.134 75.3034 326.134 71.4304C326.05 67.5574 326.555 63.6002 327.902 59.9798C329.165 56.3594 331.101 53.0758 333.375 50.1289C331.438 53.3283 330.007 56.7804 329.249 60.4008C328.491 63.937 328.491 67.6416 328.997 71.1779C329.502 74.7141 330.512 78.2503 331.607 81.8707C332.617 85.4911 333.712 89.2799 333.964 93.4055H328.07Z" fill="#947151"/>
<path d="M327.65 69.9982C329.334 70.1666 331.186 70.0824 332.954 69.914C334.722 69.7456 336.49 69.3246 338.174 68.7353C339.858 68.1459 341.458 67.3039 342.889 66.2094C344.321 65.1148 345.583 63.7677 346.51 62.168C345.668 63.7677 344.573 65.2832 343.142 66.5462C341.795 67.8091 340.195 68.7353 338.427 69.493C336.743 70.2508 334.891 70.756 333.122 71.1769C331.27 71.5137 329.418 71.7663 327.481 71.6821L327.65 69.9982ZM327.145 68.8195C325.882 68.0617 324.787 67.2197 323.777 66.3778C322.766 65.4516 321.756 64.4413 320.914 63.4309C319.23 61.2418 317.967 58.6318 317.799 55.9375C318.22 58.6318 319.735 60.9892 321.588 62.8416C322.514 63.7677 323.524 64.6097 324.619 65.3674C325.713 66.1252 326.892 66.7988 327.987 67.3039L327.145 68.8195ZM328.492 78.4178C327.06 78.3336 325.713 78.081 324.366 77.7442C323.019 77.4074 321.756 76.9022 320.493 76.2287C318.051 74.8815 315.947 72.945 314.684 70.5034C316.199 72.7767 318.388 74.4606 320.83 75.3867C322.009 75.8919 323.356 76.2287 324.619 76.4813C325.882 76.7339 327.229 76.8181 328.492 76.7339V78.4178Z" fill="#947151"/>
<path d="M311.99 74.7989C311.99 76.6512 310.475 78.1667 310.475 78.1667C310.475 78.1667 308.959 76.6512 308.959 74.7989C308.959 72.9466 310.475 71.4311 310.475 71.4311C310.475 71.4311 311.99 72.9466 311.99 74.7989ZM350.973 67.5581C350.973 69.4104 349.457 70.9259 349.457 70.9259C349.457 70.9259 347.942 69.4104 347.942 67.5581C347.942 65.7058 349.457 64.1902 349.457 64.1902C349.457 64.1902 350.973 65.7058 350.973 67.5581ZM316.2 79.0929C316.2 80.9452 314.684 82.4607 314.684 82.4607C314.684 82.4607 313.169 80.9452 313.169 79.0929C313.169 77.2406 314.684 75.7251 314.684 75.7251C314.684 75.7251 316.2 77.2406 316.2 79.0929ZM311.99 57.1178C311.99 58.9701 310.475 60.4856 310.475 60.4856C310.475 60.4856 308.959 58.9701 308.959 57.1178C308.959 55.2655 310.475 53.75 310.475 53.75C310.475 53.75 311.99 55.2655 311.99 57.1178ZM316.2 52.2344C316.2 54.0868 314.684 55.6023 314.684 55.6023C314.684 55.6023 313.169 54.0868 313.169 52.2344C313.169 50.3821 314.684 48.8666 314.684 48.8666C314.684 48.8666 316.2 50.3821 316.2 52.2344ZM337.838 54.6761C337.838 56.5284 336.323 58.044 336.323 58.044C336.323 58.044 334.891 56.5284 334.891 54.6761C334.891 52.8238 336.407 51.3083 336.407 51.3083C336.407 51.3083 337.838 52.8238 337.838 54.6761ZM342.048 50.1295C342.048 51.9819 340.532 53.4974 340.532 53.4974C340.532 53.4974 339.017 51.9819 339.017 50.1295C339.017 48.2772 340.532 46.7617 340.532 46.7617C340.532 46.7617 342.048 48.2772 342.048 50.1295ZM322.43 69.663C322.43 71.5153 320.915 73.0308 320.915 73.0308C320.915 73.0308 319.399 71.5153 319.399 69.663C319.399 67.8107 320.915 66.2951 320.915 66.2951C320.915 66.2951 322.43 67.8107 322.43 69.663ZM317.715 65.369C317.715 67.2213 316.2 68.7368 316.2 68.7368C316.2 68.7368 314.684 67.2213 314.684 65.369C314.684 63.5167 316.2 62.0012 316.2 62.0012C316.2 62.0012 317.715 63.5167 317.715 65.369ZM325.714 57.1178C325.714 58.9701 324.198 60.4856 324.198 60.4856C324.198 60.4856 322.683 58.9701 322.683 57.1178C322.683 55.2655 324.198 53.75 324.198 53.75C324.198 53.75 325.714 55.2655 325.714 57.1178ZM328.998 51.3083C328.998 53.1606 327.482 54.6761 327.482 54.6761C327.482 54.6761 325.967 53.1606 325.967 51.3083C325.967 49.456 327.482 47.9405 327.482 47.9405C327.482 47.9405 328.998 49.456 328.998 51.3083ZM333.544 65.369C333.544 67.2213 332.029 68.7368 332.029 68.7368C332.029 68.7368 330.513 67.2213 330.513 65.369C330.513 63.5167 332.029 62.0012 332.029 62.0012C332.029 62.0012 333.544 63.5167 333.544 65.369ZM344.995 73.0308C344.995 74.8831 343.479 76.3986 343.479 76.3986C343.479 76.3986 341.964 74.8831 341.964 73.0308C341.964 71.1785 343.479 69.663 343.479 69.663C343.479 69.663 344.995 71.1785 344.995 73.0308ZM342.048 58.9701C342.048 60.8224 340.532 62.3379 340.532 62.3379C340.532 62.3379 339.017 60.8224 339.017 58.9701C339.017 57.1178 340.532 55.6023 340.532 55.6023C340.532 55.6023 342.048 57.1178 342.048 58.9701ZM336.996 75.7251C336.996 77.5774 335.481 79.0929 335.481 79.0929C335.481 79.0929 333.965 77.5774 333.965 75.7251C333.965 73.8728 335.481 72.3572 335.481 72.3572C335.481 72.3572 336.996 73.8728 336.996 75.7251ZM340.953 79.5139C340.953 81.3662 339.438 82.8817 339.438 82.8817C339.438 82.8817 337.922 81.3662 337.922 79.5139C337.922 77.6616 339.438 76.146 339.438 76.146C339.438 76.146 340.953 77.6616 340.953 79.5139Z" fill="#75A843"/>
</g>
<defs>
<clipPath id="clip0_1245_387">
<rect width="41.9108" height="41.9108" fill="white" transform="translate(240 157.484)"/>
</clipPath>
<clipPath id="clip1_1245_387">
<rect width="53.8853" height="53.8853" fill="white" transform="translate(384.738 311.52)"/>
</clipPath>
<clipPath id="clip2_1245_387">
<rect width="53.8853" height="53.8853" fill="white" transform="translate(395.738 312.52)"/>
</clipPath>
<clipPath id="clip3_1245_387">
<rect width="53.8853" height="53.8853" fill="white" transform="translate(152.738 255.52)"/>
</clipPath>
<clipPath id="clip4_1245_387">
<rect width="53.8853" height="53.8853" fill="white" transform="translate(163.738 256.52)"/>
</clipPath>
<clipPath id="clip5_1245_387">
<rect width="53.8853" height="53.8853" fill="white" transform="translate(292.738 38.5195)"/>
</clipPath>
<clipPath id="clip6_1245_387">
<rect width="53.8853" height="53.8853" fill="white" transform="translate(303.738 39.5195)"/>
</clipPath>
</defs>
</svg>
