<svg width="632" height="552" viewBox="0 0 632 552" fill="none" xmlns="http://www.w3.org/2000/svg">
<path d="M66.5856 146.066L6.44474 188.929C3.20849 191.235 3.0681 195.994 6.16276 198.487L67.1002 247.583L156.137 303.722L219.366 353.624L278.724 391.05L339.804 438.21C340.372 438.648 340.856 439.185 341.235 439.795L406.91 545.619C408.759 548.599 412.759 549.364 415.578 547.277L458.088 515.805L577.51 439.247C577.898 438.999 578.313 438.796 578.748 438.642L627.001 421.574C629.398 420.727 631 418.46 631 415.918V391.612C631 391.239 630.965 390.866 630.896 390.499L603.902 247.583L578.465 147.165C578.222 146.203 577.743 145.317 577.073 144.585L539.311 103.366C538.516 102.498 537.483 101.883 536.341 101.598L448.609 79.6967C447.231 79.3525 446.019 78.5304 445.19 77.3766L392.104 3.50092C390.654 1.48375 388.112 0.56833 385.709 1.19858L279.672 29.0131C279.044 29.1778 278.447 29.4433 277.904 29.7993L168.181 101.753C167.894 101.941 167.593 102.104 167.278 102.24L67.68 145.448C67.2945 145.615 66.9277 145.822 66.5856 146.066Z" fill="#83BF4F" fill-opacity="0.3" stroke="#83BF4F" stroke-opacity="0.3" stroke-width="2"/>
<mask id="path-2-inside-1_1224_4656" fill="white">
<path d="M427.606 246.414C427.109 244.558 426.221 242.938 424.961 241.603C423.699 240.268 422.171 239.322 420.417 238.801C419.723 238.595 419.091 238.482 418.557 238.425C418.446 233.995 417.566 229.692 415.945 225.629C414.263 221.414 411.853 217.627 408.782 214.379C405.711 211.131 402.14 208.575 398.16 206.793C394.039 204.946 389.661 204.009 385.148 204.009H385.069V193.131H386.933C387.305 193.131 387.648 192.908 387.814 192.553L391.53 184.582C391.678 184.262 391.662 183.877 391.484 183.575C391.306 183.268 390.992 183.085 390.653 183.085H386.185C386.255 178.177 384.263 174.317 378.447 164.292C377.984 163.495 377.464 162.598 376.947 161.718C378.257 160.278 379.063 158.317 379.063 156.163C379.063 151.746 375.67 148.152 371.499 148.152C367.329 148.152 363.935 151.746 363.935 156.163C363.935 158.164 364.63 159.998 365.783 161.403C365.188 162.397 364.597 163.399 364.026 164.393C361.042 169.576 359.141 173.415 358.049 176.47C356.95 179.552 356.797 181.544 356.818 183.085H352.477C352.139 183.085 351.824 183.268 351.647 183.575C351.469 183.881 351.448 184.262 351.601 184.582L355.317 192.553C355.482 192.908 355.821 193.131 356.197 193.131H357.797V204.009C355.768 204.013 352.581 204.259 348.799 205.388C346.29 206.137 343.884 207.174 341.648 208.474C338.924 210.054 336.427 212.042 334.224 214.371C332.021 216.704 330.149 219.348 328.653 222.233C327.425 224.601 326.445 227.149 325.739 229.806C324.813 233.281 324.515 236.28 324.453 238.416C322.035 238.648 319.786 239.76 318.05 241.603C316.083 243.687 315 246.458 315 249.407V257.116C315 260.062 316.083 262.839 318.05 264.922C320.018 267.006 322.634 268.152 325.42 268.152H356.288H364.964H378.137H387.342H417.578C420.36 268.152 422.981 267.006 424.947 264.922C426.915 262.839 427.999 260.067 427.999 257.116V249.407C428.011 248.738 427.941 247.675 427.606 246.414ZM371.491 150.232C374.583 150.232 377.096 152.893 377.096 156.168C377.096 157.993 376.315 159.626 375.087 160.716C375.062 160.733 375.042 160.755 375.021 160.773C374.058 161.604 372.826 162.099 371.491 162.099C370.04 162.099 368.717 161.512 367.721 160.554C367.697 160.527 367.668 160.501 367.643 160.475C366.564 159.394 365.886 157.862 365.886 156.163C365.886 152.893 368.399 150.232 371.491 150.232ZM365.688 165.474C366.2 164.585 366.725 163.692 367.254 162.804C368.465 163.671 369.92 164.178 371.487 164.178C372.917 164.178 374.252 163.758 375.393 163.027C375.868 163.837 376.339 164.651 376.765 165.382C382.366 175.034 384.271 178.707 384.209 183.085H358.764C358.723 179.613 359.876 175.564 365.688 165.474ZM354.044 185.164H389.07L386.321 191.056H356.793L354.044 185.164ZM383.106 193.131V204.009H376.703C376.666 203.943 376.629 203.878 376.591 203.816C375.521 201.987 374.045 200.98 372.442 200.98H370.656C369.052 200.98 367.581 201.987 366.51 203.816C366.473 203.882 366.436 203.943 366.399 204.009H359.736V193.131H383.106ZM377.162 266.077H365.944V250.962H377.162V266.077ZM378.146 248.887H364.968C364.427 248.887 363.989 249.351 363.989 249.925V266.077H357.256V235.79H386.375V266.077H379.125V249.925C379.125 249.351 378.687 248.887 378.146 248.887ZM386.656 233.715H356.937L353.916 225.735H358.678C358.822 225.77 358.975 225.774 359.128 225.735H383.986C384.061 225.752 384.135 225.761 384.205 225.761C384.28 225.761 384.358 225.752 384.428 225.735H389.269L386.656 233.715ZM359.558 223.66L357.276 217.487H361.968C361.976 217.487 361.98 217.487 361.988 217.487H381.142H381.147H381.155H385.834L383.548 223.66H359.558ZM380.477 215.412H362.633L361.075 211.214H365.903C365.927 211.214 365.948 211.219 365.973 211.219C365.998 211.219 366.018 211.219 366.043 211.214H377.063C377.088 211.214 377.108 211.219 377.133 211.219C377.158 211.219 377.179 211.219 377.203 211.214H382.031L380.477 215.412ZM366.986 209.135C367.076 207.826 367.37 206.605 367.833 205.581C367.862 205.532 367.882 205.484 367.903 205.432C367.99 205.252 368.081 205.077 368.18 204.911C368.585 204.219 369.445 203.055 370.66 203.055H372.446C373.661 203.055 374.525 204.219 374.93 204.911C375.029 205.077 375.12 205.252 375.207 205.432C375.228 205.484 375.252 205.537 375.277 205.585C375.744 206.609 376.033 207.831 376.124 209.135H366.986ZM316.939 257.116V249.407C316.939 244.466 320.733 240.447 325.4 240.447H350.948C351.49 240.447 351.928 239.983 351.928 239.41C351.928 238.836 351.49 238.372 350.948 238.372H326.4C326.557 234.201 327.793 224.102 335.593 215.841C344.141 206.789 354.772 206.084 357.838 206.084H357.847H365.547C365.266 207.034 365.084 208.063 365.022 209.131H359.636C359.314 209.131 359.008 209.302 358.826 209.586C358.644 209.87 358.607 210.229 358.723 210.549L360.525 215.408H355.842C355.52 215.408 355.214 215.579 355.032 215.859C354.85 216.144 354.809 216.502 354.928 216.822L357.454 223.655H352.465C352.139 223.655 351.837 223.826 351.655 224.11C351.473 224.395 351.436 224.758 351.556 225.078L355.292 234.949V266.073H325.4C320.733 266.077 316.939 262.059 316.939 257.116ZM426.052 257.116C426.052 262.059 422.257 266.077 417.591 266.077H388.335V234.927L391.575 225.034C391.678 224.719 391.633 224.364 391.447 224.093C391.261 223.822 390.968 223.655 390.649 223.655H385.656L388.186 216.822C388.305 216.502 388.264 216.144 388.082 215.859C387.901 215.574 387.595 215.404 387.272 215.404H382.585L384.383 210.545C384.503 210.225 384.461 209.866 384.28 209.582C384.098 209.297 383.796 209.131 383.469 209.131H378.092C378.026 208.063 377.848 207.034 377.567 206.084H385.148C402.169 206.084 416.078 220.473 416.599 238.372H392.41C391.869 238.372 391.43 238.836 391.43 239.41C391.43 239.983 391.869 240.447 392.41 240.447H417.591C418.417 240.447 421.273 240.636 423.572 243.069C425.87 245.503 426.047 248.537 426.047 249.407L426.052 257.116Z"/>
</mask>
<path d="M427.606 246.414C427.109 244.558 426.221 242.938 424.961 241.603C423.699 240.268 422.171 239.322 420.417 238.801C419.723 238.595 419.091 238.482 418.557 238.425C418.446 233.995 417.566 229.692 415.945 225.629C414.263 221.414 411.853 217.627 408.782 214.379C405.711 211.131 402.14 208.575 398.16 206.793C394.039 204.946 389.661 204.009 385.148 204.009H385.069V193.131H386.933C387.305 193.131 387.648 192.908 387.814 192.553L391.53 184.582C391.678 184.262 391.662 183.877 391.484 183.575C391.306 183.268 390.992 183.085 390.653 183.085H386.185C386.255 178.177 384.263 174.317 378.447 164.292C377.984 163.495 377.464 162.598 376.947 161.718C378.257 160.278 379.063 158.317 379.063 156.163C379.063 151.746 375.67 148.152 371.499 148.152C367.329 148.152 363.935 151.746 363.935 156.163C363.935 158.164 364.63 159.998 365.783 161.403C365.188 162.397 364.597 163.399 364.026 164.393C361.042 169.576 359.141 173.415 358.049 176.47C356.95 179.552 356.797 181.544 356.818 183.085H352.477C352.139 183.085 351.824 183.268 351.647 183.575C351.469 183.881 351.448 184.262 351.601 184.582L355.317 192.553C355.482 192.908 355.821 193.131 356.197 193.131H357.797V204.009C355.768 204.013 352.581 204.259 348.799 205.388C346.29 206.137 343.884 207.174 341.648 208.474C338.924 210.054 336.427 212.042 334.224 214.371C332.021 216.704 330.149 219.348 328.653 222.233C327.425 224.601 326.445 227.149 325.739 229.806C324.813 233.281 324.515 236.28 324.453 238.416C322.035 238.648 319.786 239.76 318.05 241.603C316.083 243.687 315 246.458 315 249.407V257.116C315 260.062 316.083 262.839 318.05 264.922C320.018 267.006 322.634 268.152 325.42 268.152H356.288H364.964H378.137H387.342H417.578C420.36 268.152 422.981 267.006 424.947 264.922C426.915 262.839 427.999 260.067 427.999 257.116V249.407C428.011 248.738 427.941 247.675 427.606 246.414ZM371.491 150.232C374.583 150.232 377.096 152.893 377.096 156.168C377.096 157.993 376.315 159.626 375.087 160.716C375.062 160.733 375.042 160.755 375.021 160.773C374.058 161.604 372.826 162.099 371.491 162.099C370.04 162.099 368.717 161.512 367.721 160.554C367.697 160.527 367.668 160.501 367.643 160.475C366.564 159.394 365.886 157.862 365.886 156.163C365.886 152.893 368.399 150.232 371.491 150.232ZM365.688 165.474C366.2 164.585 366.725 163.692 367.254 162.804C368.465 163.671 369.92 164.178 371.487 164.178C372.917 164.178 374.252 163.758 375.393 163.027C375.868 163.837 376.339 164.651 376.765 165.382C382.366 175.034 384.271 178.707 384.209 183.085H358.764C358.723 179.613 359.876 175.564 365.688 165.474ZM354.044 185.164H389.07L386.321 191.056H356.793L354.044 185.164ZM383.106 193.131V204.009H376.703C376.666 203.943 376.629 203.878 376.591 203.816C375.521 201.987 374.045 200.98 372.442 200.98H370.656C369.052 200.98 367.581 201.987 366.51 203.816C366.473 203.882 366.436 203.943 366.399 204.009H359.736V193.131H383.106ZM377.162 266.077H365.944V250.962H377.162V266.077ZM378.146 248.887H364.968C364.427 248.887 363.989 249.351 363.989 249.925V266.077H357.256V235.79H386.375V266.077H379.125V249.925C379.125 249.351 378.687 248.887 378.146 248.887ZM386.656 233.715H356.937L353.916 225.735H358.678C358.822 225.77 358.975 225.774 359.128 225.735H383.986C384.061 225.752 384.135 225.761 384.205 225.761C384.28 225.761 384.358 225.752 384.428 225.735H389.269L386.656 233.715ZM359.558 223.66L357.276 217.487H361.968C361.976 217.487 361.98 217.487 361.988 217.487H381.142H381.147H381.155H385.834L383.548 223.66H359.558ZM380.477 215.412H362.633L361.075 211.214H365.903C365.927 211.214 365.948 211.219 365.973 211.219C365.998 211.219 366.018 211.219 366.043 211.214H377.063C377.088 211.214 377.108 211.219 377.133 211.219C377.158 211.219 377.179 211.219 377.203 211.214H382.031L380.477 215.412ZM366.986 209.135C367.076 207.826 367.37 206.605 367.833 205.581C367.862 205.532 367.882 205.484 367.903 205.432C367.99 205.252 368.081 205.077 368.18 204.911C368.585 204.219 369.445 203.055 370.66 203.055H372.446C373.661 203.055 374.525 204.219 374.93 204.911C375.029 205.077 375.12 205.252 375.207 205.432C375.228 205.484 375.252 205.537 375.277 205.585C375.744 206.609 376.033 207.831 376.124 209.135H366.986ZM316.939 257.116V249.407C316.939 244.466 320.733 240.447 325.4 240.447H350.948C351.49 240.447 351.928 239.983 351.928 239.41C351.928 238.836 351.49 238.372 350.948 238.372H326.4C326.557 234.201 327.793 224.102 335.593 215.841C344.141 206.789 354.772 206.084 357.838 206.084H357.847H365.547C365.266 207.034 365.084 208.063 365.022 209.131H359.636C359.314 209.131 359.008 209.302 358.826 209.586C358.644 209.87 358.607 210.229 358.723 210.549L360.525 215.408H355.842C355.52 215.408 355.214 215.579 355.032 215.859C354.85 216.144 354.809 216.502 354.928 216.822L357.454 223.655H352.465C352.139 223.655 351.837 223.826 351.655 224.11C351.473 224.395 351.436 224.758 351.556 225.078L355.292 234.949V266.073H325.4C320.733 266.077 316.939 262.059 316.939 257.116ZM426.052 257.116C426.052 262.059 422.257 266.077 417.591 266.077H388.335V234.927L391.575 225.034C391.678 224.719 391.633 224.364 391.447 224.093C391.261 223.822 390.968 223.655 390.649 223.655H385.656L388.186 216.822C388.305 216.502 388.264 216.144 388.082 215.859C387.901 215.574 387.595 215.404 387.272 215.404H382.585L384.383 210.545C384.503 210.225 384.461 209.866 384.28 209.582C384.098 209.297 383.796 209.131 383.469 209.131H378.092C378.026 208.063 377.848 207.034 377.567 206.084H385.148C402.169 206.084 416.078 220.473 416.599 238.372H392.41C391.869 238.372 391.43 238.836 391.43 239.41C391.43 239.983 391.869 240.447 392.41 240.447H417.591C418.417 240.447 421.273 240.636 423.572 243.069C425.87 245.503 426.047 248.537 426.047 249.407L426.052 257.116Z" fill="black" stroke="#79747E" stroke-width="2" mask="url(#path-2-inside-1_1224_4656)"/>
</svg>
